PathFileType  4	(X/Y/Z) C:\Users\antoi\Documents\MyRepositories\mobilecap\ResultsAnalysis
DataRate	CameraRate	NumFrames	NumMarkers	Units	OrigDataRate	OrigDataStartFrame	OrigNumFrames
100.0	100.0	4	51	mm	100.0	177	1413
Frame#	Time	r_knee			r_shank_antsup			r_ankle			r_calc			r_5meta			r_toe			L_knee			L_shank_antsup			L_ankle			L_calc			L_5meta			L_toe			r_sh2			r_sh3			r_sh4			L_sh2			L_sh3			r_thigh1			r_thigh2			r_thigh3			r_thigh4			r_thigh5			L_thigh1			L_thigh2			L_thigh3			L_thigh4			r.ASIS			r.PSIS			L.ASIS			L.PSIS			C7			R_Shoulder			L_Shoulder			R_Sternum			L_Sternum			R_humerus			R_elbow_med			R_elbow_lat			R_forearm			R_wrist_radius			R_wrist_ulna			L_humerus			L_elbow_med			L_elbow_lat			L_forearm			L_wrist_radius			L_wrist_ulna			R_HJC			L_HJC			R_HJC_reg			L_HJC_reg			
		X1	Y1	Z1	X2	Y2	Z2	X3	Y3	Z3	X4	Y4	Z4	X5	Y5	Z5	X6	Y6	Z6	X7	Y7	Z7	X8	Y8	Z8	X9	Y9	Z9	X10	Y10	Z10	X11	Y11	Z11	X12	Y12	Z12	X13	Y13	Z13	X14	Y14	Z14	X15	Y15	Z15	X16	Y16	Z16	X17	Y17	Z17	X18	Y18	Z18	X19	Y19	Z19	X20	Y20	Z20	X21	Y21	Z21	X22	Y22	Z22	X23	Y23	Z23	X24	Y24	Z24	X25	Y25	Z25	X26	Y26	Z26	X27	Y27	Z27	X28	Y28	Z28	X29	Y29	Z29	X30	Y30	Z30	X31	Y31	Z31	X32	Y32	Z32	X33	Y33	Z33	X34	Y34	Z34	X35	Y35	Z35	X36	Y36	Z36	X37	Y37	Z37	X38	Y38	Z38	X39	Y39	Z39	X40	Y40	Z40	X41	Y41	Z41	X42	Y42	Z42	X43	Y43	Z43	X44	Y44	Z44	X45	Y45	Z45	X46	Y46	Z46	X47	Y47	Z47	X48	Y48	Z48	X49	Y49	Z49	X50	Y50	Z50	X51	Y51	Z51	

177	1.76000000	-147.44433	477.53149	-465.86919	-102.74562	403.75607	-469.01163	-258.35815	99.09630	-447.81983	-330.47061	63.00698	-482.67327	-161.16622	44.93695	-406.43910	-111.78258	70.51767	-460.48056	-157.03580	473.79753	-948.89016	-122.87951	381.21363	-965.06384	-262.92139	99.25447	-939.55556	-330.11529	62.79465	-893.49984	-162.89781	40.79676	-987.94286	-117.64404	64.39894	-937.09716	-155.66736	303.89029	-439.66968	-173.68504	437.49643	-446.76009	-222.06778	337.68138	-433.71300	-206.90000	412.97093	-956.88391	-241.10097	296.08042	-966.25231	-319.24518	744.94526	-508.71900	-247.63999	663.02580	-489.04260	-275.02052	610.16242	-460.25181	-403.99603	670.84405	-494.98116	-322.88967	586.20545	-478.58157	-324.09271	689.60715	-945.35141	-220.64465	598.28076	-951.47044	-394.98883	606.96974	-901.03097	-286.60505	519.00841	-920.14939	-304.81886	780.15320	-587.36137	-449.66666	903.00177	-660.22919	-312.46152	765.34959	-828.02745	-454.53645	909.64405	-755.72885	-222.60115	1224.30662	-716.25463	-134.78420	1186.41374	-562.42096	-170.14005	1189.16053	-883.63107	-100.28898	1143.45544	-703.31938	-95.85637	1145.22018	-741.07351	-151.96846	1093.44852	-464.45259	-201.61919	879.24302	-429.33562	-187.22922	925.01619	-364.76321	-70.92022	971.13344	-420.32789	31.76380	1008.90969	-484.88617	53.96634	983.08104	-471.84421	-194.67647	1103.73313	-967.44178	-250.36695	872.54440	-986.69209	-252.92553	928.57073	-1053.99082	-162.04119	975.40844	-1022.42172	-26.91655	1021.16983	-984.45041	-14.53997	996.51438	-1003.69956	-410.23773	747.43039	-601.67456	-416.77409	742.51849	-807.98291	-401.19883	739.09072	-618.08354	-409.28861	750.12558	-776.71389	
178	1.77000000	-146.71942	476.75706	-465.68762	-101.74564	403.00185	-468.86106	-258.42239	99.00725	-447.99154	-330.54086	62.92143	-482.70438	-161.18139	45.03426	-406.68972	-111.87825	70.73529	-460.55472	-156.11904	472.81846	-949.16369	-121.72665	380.04592	-965.18236	-262.97666	99.11329	-939.40049	-330.13352	62.75056	-893.46439	-162.94763	40.85909	-987.76909	-117.65184	64.60289	-937.07631	-154.93374	303.01322	-440.05702	-172.78210	436.87719	-446.73406	-221.41710	337.75014	-433.77306	-205.63234	412.25358	-957.18905	-240.14608	295.61689	-966.58584	-323.62907	740.53990	-508.81606	-250.52190	659.92329	-489.19083	-276.79140	606.66456	-460.31747	-406.97680	664.68228	-495.04496	-324.21474	581.87690	-478.36279	-327.55640	685.24004	-945.27993	-222.30883	596.16003	-951.66032	-396.84773	600.96549	-900.89108	-286.52420	515.52992	-920.70619	-308.88927	773.10997	-587.76956	-453.41325	895.95080	-660.49604	-316.26742	758.56298	-828.29769	-458.26277	902.73723	-755.69556	-224.62528	1215.81654	-716.69514	-136.38315	1177.73675	-562.96989	-171.73930	1180.33405	-884.37718	-101.64742	1133.94849	-703.84947	-99.28188	1134.53013	-740.94572	-152.41017	1085.08482	-465.05523	-200.23908	870.35308	-429.50019	-185.64156	916.47472	-365.04256	-69.96285	963.14328	-421.56492	32.45448	1001.18228	-486.76766	54.56847	975.62306	-473.73269	-195.12220	1094.98175	-968.12617	-248.05062	863.22741	-988.73790	-250.51373	919.63646	-1055.55747	-160.22733	966.87631	-1023.13805	-25.55757	1013.37061	-984.16195	-12.88387	988.81529	-1003.42218	-414.17069	740.33886	-602.05545	-420.59961	735.73583	-808.37393	-405.09332	732.08628	-618.53790	-413.16897	743.38701	-777.04326	
179	1.78000000	-146.11955	475.88770	-465.57803	-100.88198	402.22971	-468.74412	-258.48741	98.85828	-448.20510	-330.57227	62.88213	-482.74137	-161.22282	45.12454	-406.92860	-111.95753	70.96821	-460.63021	-155.21868	472.05620	-949.79090	-120.72154	378.98205	-965.58938	-262.97999	98.91481	-939.36489	-330.14997	62.71614	-893.43893	-163.03201	40.80528	-987.47963	-117.65186	64.81694	-937.09494	-154.33982	302.38055	-440.35052	-171.93369	436.30649	-446.87715	-220.62980	337.32992	-433.62631	-204.41714	411.70797	-957.70815	-239.44483	295.10058	-966.95644	-327.83505	735.85422	-509.01914	-253.41983	656.84376	-489.23121	-278.59749	603.09141	-460.46102	-409.90093	658.58929	-495.02112	-325.67709	577.39130	-478.23723	-330.96937	681.07582	-945.59629	-223.92227	594.21270	-952.00894	-398.65269	595.01891	-900.99971	-286.39327	512.04974	-921.46521	-312.83870	766.02508	-588.08162	-457.19988	888.77426	-660.71228	-319.67718	751.18268	-827.85838	-461.77576	895.36404	-755.83526	-226.66399	1207.23888	-717.10613	-138.08013	1169.10816	-563.49951	-173.35784	1171.41537	-884.98100	-102.01943	1124.02792	-704.53548	-100.95067	1127.15517	-740.89585	-153.01016	1076.53736	-465.74614	-199.08152	861.58030	-429.86199	-184.21584	907.93851	-365.31261	-69.14159	955.04447	-422.85013	32.89324	993.22642	-488.42451	55.05145	968.07023	-475.61106	-195.63822	1086.15659	-968.58262	-245.89542	853.71810	-990.68663	-248.20825	910.66117	-1056.96639	-158.50949	958.25770	-1023.77339	-24.27511	1005.42082	-983.83078	-11.29301	980.92698	-1002.96220	-418.00621	733.18466	-602.07452	-424.08650	728.38221	-808.39908	-408.88795	725.22817	-618.90958	-416.49330	736.17992	-776.96719	
180	1.79000000	-145.62775	475.02300	-465.36022	-100.12624	401.43019	-468.52729	-258.51775	98.70269	-448.42487	-330.64206	62.77946	-482.78723	-161.28864	45.36018	-406.94668	-111.98296	71.38088	-460.56409	-154.35726	471.44841	-950.70079	-119.78901	378.12235	-966.29815	-262.95925	98.68233	-939.31762	-330.16770	62.68839	-893.41455	-163.14050	40.65999	-987.06507	-117.66638	65.04444	-937.10427	-154.13428	302.04748	-440.02387	-170.95434	435.83793	-446.79580	-220.20923	336.86107	-433.38300	-203.26271	411.24324	-958.44194	-238.88560	294.58844	-967.29040	-331.97150	731.20426	-509.27065	-256.51017	653.72056	-489.30606	-280.45288	599.57693	-460.53077	-412.81802	652.73911	-494.77527	-327.26828	572.93962	-478.19592	-334.31006	677.09062	-946.08492	-225.08815	592.74235	-952.85267	-400.36632	589.16882	-901.70060	-286.25834	508.63455	-922.52139	-316.46526	758.84929	-588.17486	-461.01154	881.51420	-660.88631	-322.99860	743.63982	-827.29557	-465.32074	887.80440	-755.99685	-228.70614	1198.64479	-717.50093	-139.88453	1160.48271	-564.04503	-175.04431	1162.46053	-885.43036	-102.84967	1114.53592	-705.21349	-99.23560	1123.71842	-743.13090	-153.75180	1067.96872	-466.43515	-198.09351	852.88881	-430.17900	-182.98516	899.30557	-365.77280	-68.40247	946.89330	-424.05875	33.01178	985.34212	-490.14220	55.36862	960.33451	-477.68718	-196.30549	1077.29003	-968.89494	-243.75983	844.43430	-992.13624	-246.00910	901.54499	-1058.28544	-156.83362	949.57625	-1024.40604	-23.09592	997.34562	-983.43090	-9.84136	972.88072	-1002.24997	-421.63639	725.95977	-601.91734	-427.44610	720.78867	-808.24161	-412.50035	718.26223	-619.03766	-419.64482	728.69140	-776.72930	
